<svg id="Icon_Set" enable-background="new 0 0 64 64" height="512" viewBox="0 0 64 64" width="512" xmlns="http://www.w3.org/2000/svg"><path d="m4 54v-40h53v40c0 1.105-.895 2-2 2h-49c-1.105 0-2-.895-2-2z" fill="#99a2b9"/><path d="m55 56.5h-49c-1.379 0-2.5-1.121-2.5-2.5v-40c0-.276.224-.5.5-.5h53c.276 0 .5.224.5.5v40c0 1.379-1.121 2.5-2.5 2.5zm-50.5-42v39.5c0 .827.673 1.5 1.5 1.5h49c.827 0 1.5-.673 1.5-1.5v-39.5z" fill="#212a41"/><path d="m55 8h-49c-1.105 0-2 .895-2 2v4h53v-4c0-1.105-.895-2-2-2z" fill="#c2c2c2"/><path d="m57 14.5h-53c-.276 0-.5-.224-.5-.5v-4c0-1.379 1.121-2.5 2.5-2.5h49c1.379 0 2.5 1.121 2.5 2.5v4c0 .276-.224.5-.5.5zm-52.5-1h52v-3.5c0-.827-.673-1.5-1.5-1.5h-49c-.827 0-1.5.673-1.5 1.5z" fill="#212a41"/><path d="m7 54v-40h53v40c0 1.105-.895 2-2 2h-49c-1.105 0-2-.895-2-2z" fill="#0079a8"/><path d="m58 56.5h-49c-1.379 0-2.5-1.121-2.5-2.5v-40c0-.276.224-.5.5-.5h53c.276 0 .5.224.5.5v40c0 1.379-1.121 2.5-2.5 2.5zm-50.5-42v39.5c0 .827.673 1.5 1.5 1.5h49c.827 0 1.5-.673 1.5-1.5v-39.5z" fill="#212a41"/><path d="m9 54.5c-.276 0-.5-.224-.5-.5v-38c0-.276.224-.5.5-.5s.5.224.5.5v38c0 .276-.224.5-.5.5z" fill="#1e97c6"/><path d="m58 54.5c-.276 0-.5-.224-.5-.5v-38c0-.276.224-.5.5-.5s.5.224.5.5v38c0 .276-.224.5-.5.5z" fill="#005b8a"/><path d="m58 8h-49c-1.105 0-2 .895-2 2v4h53v-4c0-1.105-.895-2-2-2z" fill="#e0e0e0"/><g fill="#212a41"><path d="m60 14.5h-53c-.276 0-.5-.224-.5-.5v-4c0-1.379 1.121-2.5 2.5-2.5h49c1.379 0 2.5 1.121 2.5 2.5v4c0 .276-.224.5-.5.5zm-52.5-1h52v-3.5c0-.827-.673-1.5-1.5-1.5h-49c-.827 0-1.5.673-1.5 1.5z"/><path d="m52 11.5h-2c-.276 0-.5-.224-.5-.5s.224-.5.5-.5h2c.276 0 .5.224.5.5s-.224.5-.5.5z"/><path d="m57 12.5c-.128 0-.256-.049-.354-.146l-2-2c-.195-.195-.195-.512 0-.707s.512-.195.707 0l2 2c.195.195.195.512 0 .707-.097.097-.225.146-.353.146z"/><path d="m55 12.5c-.128 0-.256-.049-.354-.146-.195-.195-.195-.512 0-.707l2-2c.195-.195.512-.195.707 0s.195.512 0 .707l-2 2c-.097.097-.225.146-.353.146z"/></g><path d="m35 24h3v-3h-3c-1.93 0-3.5 1.57-3.5 3.5v2.5h-2.5v3h2.5v6.5h3v-6.5h2.5l1-3h-3.5v-2.5c0-.275.225-.5.5-.5z" fill="#e0e0e0"/><path d="m34.5 37h-3c-.276 0-.5-.224-.5-.5v-6h-2c-.276 0-.5-.224-.5-.5v-3c0-.276.224-.5.5-.5h2v-2c0-2.206 1.794-4 4-4h3c.276 0 .5.224.5.5v3c0 .276-.224.5-.5.5h-2.999l-.001 2h3c.161 0 .312.077.405.208.095.13.12.298.069.45l-1 3c-.068.204-.259.342-.474.342h-2v6c0 .276-.224.5-.5.5zm-2.5-1h2v-6c0-.276.224-.5.5-.5h2.14l.667-2h-2.807c-.276 0-.5-.224-.5-.5v-2.5c0-.552.448-1 1-1h2.5v-2h-2.5c-1.654 0-3 1.346-3 3v2.5c0 .276-.224.5-.5.5h-2v2h2c.276 0 .5.224.5.5zm3-12v.5z" fill="#212a41"/><circle cx="42" cy="33" fill="#e0c8a4" r="3"/><path d="m42 36.5c-1.93 0-3.5-1.57-3.5-3.5s1.57-3.5 3.5-3.5 3.5 1.57 3.5 3.5-1.57 3.5-3.5 3.5zm0-6c-1.379 0-2.5 1.121-2.5 2.5s1.121 2.5 2.5 2.5 2.5-1.121 2.5-2.5-1.121-2.5-2.5-2.5z" fill="#212a41"/><path d="m48 44h-12v-4c0-2.209 1.791-4 4-4h4c2.209 0 4 1.791 4 4z" fill="#f9ac2f"/><path d="m48 44.5h-12c-.276 0-.5-.224-.5-.5v-4c0-2.481 2.019-4.5 4.5-4.5h4c2.481 0 4.5 2.019 4.5 4.5v4c0 .276-.224.5-.5.5zm-11.5-1h11v-3.5c0-1.93-1.57-3.5-3.5-3.5h-4c-1.93 0-3.5 1.57-3.5 3.5z" fill="#212a41"/><path d="m38 42.5c-.276 0-.5-.224-.5-.5v-2c0-1.379 1.121-2.5 2.5-2.5.276 0 .5.224.5.5s-.224.5-.5.5c-.827 0-1.5.673-1.5 1.5v2c0 .276-.224.5-.5.5z" fill="#ffca4d"/><path d="m46 42.5c-.276 0-.5-.224-.5-.5v-2c0-.827-.673-1.5-1.5-1.5-.276 0-.5-.224-.5-.5s.224-.5.5-.5c1.379 0 2.5 1.121 2.5 2.5v2c0 .276-.224.5-.5.5z" fill="#db8e11"/><circle cx="24" cy="33" fill="#e0c8a4" r="3"/><path d="m24 36.5c-1.93 0-3.5-1.57-3.5-3.5s1.57-3.5 3.5-3.5 3.5 1.57 3.5 3.5-1.57 3.5-3.5 3.5zm0-6c-1.379 0-2.5 1.121-2.5 2.5s1.121 2.5 2.5 2.5 2.5-1.121 2.5-2.5-1.121-2.5-2.5-2.5z" fill="#212a41"/><path d="m30 44h-12v-4c0-2.209 1.791-4 4-4h4c2.209 0 4 1.791 4 4z" fill="#f9ac2f"/><path d="m30 44.5h-12c-.276 0-.5-.224-.5-.5v-4c0-2.481 2.019-4.5 4.5-4.5h4c2.481 0 4.5 2.019 4.5 4.5v4c0 .276-.224.5-.5.5zm-11.5-1h11v-3.5c0-1.93-1.57-3.5-3.5-3.5h-4c-1.93 0-3.5 1.57-3.5 3.5z" fill="#212a41"/><path d="m20 42.5c-.276 0-.5-.224-.5-.5v-2c0-1.379 1.121-2.5 2.5-2.5.276 0 .5.224.5.5s-.224.5-.5.5c-.827 0-1.5.673-1.5 1.5v2c0 .276-.224.5-.5.5z" fill="#ffca4d"/><path d="m28 42.5c-.276 0-.5-.224-.5-.5v-2c0-.827-.673-1.5-1.5-1.5-.276 0-.5-.224-.5-.5s.224-.5.5-.5c1.379 0 2.5 1.121 2.5 2.5v2c0 .276-.224.5-.5.5z" fill="#db8e11"/><circle cx="33" cy="37" fill="#e0c8a4" r="3"/><path d="m33 40.5c-1.93 0-3.5-1.57-3.5-3.5s1.57-3.5 3.5-3.5 3.5 1.57 3.5 3.5-1.57 3.5-3.5 3.5zm0-6c-1.379 0-2.5 1.121-2.5 2.5s1.121 2.5 2.5 2.5 2.5-1.121 2.5-2.5-1.121-2.5-2.5-2.5z" fill="#212a41"/><path d="m39 48h-12v-4c0-2.209 1.791-4 4-4h4c2.209 0 4 1.791 4 4z" fill="#f9ac2f"/><path d="m39 48.5h-12c-.276 0-.5-.224-.5-.5v-4c0-2.481 2.019-4.5 4.5-4.5h4c2.481 0 4.5 2.019 4.5 4.5v4c0 .276-.224.5-.5.5zm-11.5-1h11v-3.5c0-1.93-1.57-3.5-3.5-3.5h-4c-1.93 0-3.5 1.57-3.5 3.5z" fill="#212a41"/><path d="m29 46.5c-.276 0-.5-.224-.5-.5v-2c0-1.379 1.121-2.5 2.5-2.5.276 0 .5.224.5.5s-.224.5-.5.5c-.827 0-1.5.673-1.5 1.5v2c0 .276-.224.5-.5.5z" fill="#ffca4d"/><path d="m37 46.5c-.276 0-.5-.224-.5-.5v-2c0-.827-.673-1.5-1.5-1.5-.276 0-.5-.224-.5-.5s.224-.5.5-.5c1.379 0 2.5 1.121 2.5 2.5v2c0 .276-.224.5-.5.5z" fill="#db8e11"/></svg>